<svg id="svg" version="1.1" xmlns="http://www.w3.org/2000/svg" xmlns:xlink="http://www.w3.org/1999/xlink" width="400" height="427.6" viewBox="0, 0, 400,427.6"><g id="svgg"><path id="path0" d="M108.800 19.800 L 94.603 34.001 120.187 59.587 L 145.771 85.173 89.985 85.292 L 34.200 85.410 30.289 86.485 C 13.815 91.012,2.415 103.955,0.418 120.400 C 0.078 123.205,-0.011 151.274,0.078 227.600 L 0.200 331.000 1.261 334.800 C 5.617 350.400,17.727 361.543,33.170 364.161 C 36.582 364.739,52.425 364.800,199.600 364.800 C 346.775 364.800,362.618 364.739,366.030 364.161 C 381.473 361.543,393.583 350.400,397.939 334.800 L 399.000 331.000 399.122 227.600 C 399.211 151.274,399.122 123.205,398.782 120.400 C 396.785 103.955,385.385 91.012,368.911 86.485 L 365.000 85.410 309.215 85.292 L 253.429 85.173 279.014 59.586 L 304.598 34.000 290.299 19.701 L 276.000 5.401 237.800 43.600 L 199.600 81.798 161.499 43.699 C 140.544 22.745,123.308 5.600,123.197 5.600 C 123.086 5.600,116.607 11.990,108.800 19.800 M299.200 225.000 L 299.200 324.400 169.800 324.400 L 40.400 324.400 40.400 225.000 L 40.400 125.600 169.800 125.600 L 299.200 125.600 299.200 225.000 M353.563 126.216 C 368.507 129.738,373.802 148.255,362.967 159.104 C 350.549 171.538,329.411 162.737,329.481 145.162 C 329.532 132.705,341.418 123.353,353.563 126.216 M354.918 186.404 C 368.971 190.744,373.367 208.546,362.957 218.957 C 353.345 228.568,337.205 225.794,331.404 213.533 C 324.126 198.150,338.659 181.382,354.918 186.404 " stroke="none" fill="#8c8c94" fill-rule="evenodd"></path><path id="path1" d="M183.374 137.351 C 178.653 139.549,176.008 143.302,176.007 147.800 C 176.007 153.175,176.373 154.832,177.661 155.281 C 180.498 156.270,178.580 158.052,174.315 158.391 C 167.091 158.965,162.918 163.286,156.644 176.688 L 153.315 183.800 150.599 184.000 L 147.882 184.200 144.356 194.162 C 142.416 199.641,140.925 204.278,141.041 204.466 C 141.158 204.655,142.276 205.459,143.526 206.253 C 144.777 207.047,145.843 207.733,145.896 207.777 C 146.553 208.331,143.213 215.618,141.585 217.185 C 139.882 218.822,135.600 228.001,135.600 230.013 C 135.600 230.226,134.812 230.400,133.849 230.400 C 131.369 230.400,131.356 230.440,130.426 240.401 C 129.076 254.853,128.707 256.504,126.453 258.171 C 122.215 261.303,119.515 264.839,116.476 271.235 C 115.179 273.966,111.844 280.974,109.067 286.809 C 103.974 297.507,103.147 299.673,103.960 300.175 C 105.242 300.967,104.426 304.527,101.992 308.765 C 97.946 315.810,98.110 316.000,108.271 316.000 C 117.737 316.000,117.023 316.598,117.421 308.334 L 117.704 302.467 119.392 300.534 C 120.321 299.470,126.613 292.120,133.375 284.200 C 146.974 268.273,145.731 270.148,152.192 255.800 C 161.359 235.438,160.566 236.276,164.612 242.697 C 170.351 251.807,175.435 258.265,177.847 259.510 C 179.919 260.580,180.230 259.574,175.060 268.530 C 171.382 274.902,171.804 273.631,169.196 286.200 C 168.785 288.180,168.184 290.790,167.861 292.000 C 166.244 298.046,164.435 304.420,164.251 304.717 C 163.961 305.187,162.800 312.559,162.800 313.934 L 162.800 315.076 172.900 315.353 C 186.495 315.725,190.936 315.117,193.163 312.581 C 195.664 309.733,194.860 308.752,188.600 307.016 C 184.447 305.865,183.047 304.903,181.609 302.216 C 181.067 301.204,181.130 301.089,183.685 298.486 C 186.213 295.908,186.453 295.485,189.612 288.000 C 191.422 283.710,194.698 275.997,196.891 270.861 L 200.879 261.522 200.739 258.251 C 200.557 253.970,200.907 254.681,188.056 232.463 C 186.485 229.747,185.200 227.381,185.200 227.205 C 185.200 227.029,184.656 226.302,183.991 225.590 C 182.851 224.370,182.764 224.042,182.482 219.948 L 182.183 215.600 183.664 215.600 L 185.145 215.600 189.224 207.955 C 194.459 198.145,194.351 198.442,193.222 196.916 C 192.223 195.565,192.380 194.896,194.063 193.327 L 195.000 192.454 198.800 194.640 C 203.256 197.204,204.966 197.320,209.054 195.333 L 211.386 194.200 213.193 190.037 L 215.000 185.873 215.275 187.791 C 215.673 190.572,215.821 190.629,220.075 189.671 C 222.124 189.209,224.469 188.716,225.286 188.574 C 227.635 188.167,227.678 187.900,226.292 182.268 C 225.183 177.759,225.100 177.053,225.592 176.278 C 225.899 175.795,226.449 174.140,226.814 172.600 L 227.478 169.800 241.720 169.600 C 257.882 169.373,256.982 169.587,256.725 166.030 L 256.549 163.600 262.074 163.600 L 267.600 163.600 267.600 162.000 L 267.600 160.400 262.097 160.400 L 256.594 160.400 256.731 158.677 C 256.963 155.766,255.101 155.102,253.685 157.591 L 253.000 158.795 228.300 158.797 C 206.077 158.800,203.600 158.737,203.600 158.169 C 203.600 157.687,203.944 157.568,205.059 157.664 C 206.813 157.816,206.902 157.683,207.985 153.311 C 208.997 149.225,208.998 149.256,207.874 148.828 C 207.288 148.606,206.473 147.513,205.661 145.864 C 201.970 138.365,190.558 134.006,183.374 137.351 " stroke="none" fill="#34343c" fill-rule="evenodd"></path></g></svg>